# xmcd
#
# Track frame offsets:
#   150
#   10424
#   27952
#   44962
#   60922
#   77794
#   96728
#   111615
#   128097
#   139398
#   155952
#   175733
#
# Disc length: 2591 seconds
#
# Revision: 0
# Processed by: cddbd v1.5.1PL0 Copyright (c) Steve Scherf et al.
# Submitted via: uFREEDB 1.6.0
#
DISCID=b30a1d0c
DTITLE=John Swyer - Tributo a Garth Brooks
DYEAR=1900
DGENRE=Country
TTITLE0=Longneck Bottle
TTITLE1=Ain't Going Down Till The Sun Comes Up
TTITLE2=If Tomorrow Never Comes
TTITLE3=In Another Eyes
TTITLE4=The Red Strokes
TTITLE5=Friends In Low Places
TTITLE6=Unanswered Prayers
TTITLE7=The Dance
TTITLE8=Two Of A Kind
TTITLE9=Standing Outside The Fire
TTITLE10=Shameless
TTITLE11=The Beaches Of Cheyenne
EXTD=
EXTT0=
EXTT1=
EXTT2=
EXTT3=
EXTT4=
EXTT5=
EXTT6=
EXTT7=
EXTT8=
EXTT9=
EXTT10=
EXTT11=
PLAYORDER=
